<?xml version="1.0" encoding="utf-8"?>
<svg viewBox="0 0 500 500" xmlns="http://www.w3.org/2000/svg">
  <path d="M978.03346,618.5h-379a5.00573,5.00573,0,0,1-5-5v-417a5.00573,5.00573,0,0,1,5-5h379a5.00573,5.00573,0,0,1,5,5v417A5.00573,5.00573,0,0,1,978.03346,618.5Zm-379-425a3.00328,3.00328,0,0,0-3,3v417a3.00328,3.00328,0,0,0,3,3h379a3.00328,3.00328,0,0,0,3-3v-417a3.00328,3.00328,0,0,0-3-3Z" transform="matrix(1, 0, 0, 1, -352.375299, -227.315917)" style="fill: rgb(63, 61, 86);"/>
  <path d="M762.53346,350.5h-94a5.00573,5.00573,0,0,1-5-5v-94a5.00573,5.00573,0,0,1,5-5h94a5.00573,5.00573,0,0,1,5,5v94A5.00573,5.00573,0,0,1,762.53346,350.5Zm-94-102a3.00328,3.00328,0,0,0-3,3v94a3.00328,3.00328,0,0,0,3,3h94a3.00328,3.00328,0,0,0,3-3v-94a3.00328,3.00328,0,0,0-3-3Z" transform="matrix(1, 0, 0, 1, -352.375299, -227.315917)" style="fill: rgb(242, 242, 242);"/>
  <path d="M735.53346,362h-94a4.50508,4.50508,0,0,1-4.5-4.5v-94a4.50508,4.50508,0,0,1,4.5-4.5h94a4.50507,4.50507,0,0,1,4.5,4.5v94A4.50507,4.50507,0,0,1,735.53346,362Z" transform="matrix(1, 0, 0, 1, -352.375299, -227.315917)" style="fill: rgb(245, 78, 89);"/>
  <path d="M935.53346,408h-294a4.5,4.5,0,0,1,0-9h294a4.5,4.5,0,1,1,0,9Z" transform="matrix(1, 0, 0, 1, -352.375299, -227.315917)" style="fill: rgb(204, 204, 204);"/>
  <path d="M864.53346,439h-223a4.5,4.5,0,0,1,0-9h223a4.5,4.5,0,1,1,0,9Z" transform="matrix(1, 0, 0, 1, -352.375299, -227.315917)" style="fill: rgb(204, 204, 204);"/>
  <path d="M934.53346,294h-130a4.5,4.5,0,0,1,0-9h130a4.5,4.5,0,1,1,0,9Z" transform="matrix(1, 0, 0, 1, -352.375299, -227.315917)" style="fill: rgb(204, 204, 204);"/>
  <path d="M902.08986,325h-97.5564a4.5,4.5,0,0,1,0-9h97.5564a4.5,4.5,0,0,1,0,9Z" transform="matrix(1, 0, 0, 1, -352.375299, -227.315917)" style="fill: rgb(204, 204, 204);"/>
  <path d="M935.53346,470h-294a4.5,4.5,0,0,1,0-9h294a4.5,4.5,0,1,1,0,9Z" transform="matrix(1, 0, 0, 1, -352.375299, -227.315917)" style="fill: rgb(204, 204, 204);"/>
  <path d="M864.53346,501h-223a4.5,4.5,0,0,1,0-9h223a4.5,4.5,0,1,1,0,9Z" transform="matrix(1, 0, 0, 1, -352.375299, -227.315917)" style="fill: rgb(204, 204, 204);"/>
  <path d="M935.53346,532h-294a4.5,4.5,0,0,1,0-9h294a4.5,4.5,0,1,1,0,9Z" transform="matrix(1, 0, 0, 1, -352.375299, -227.315917)" style="fill: rgb(204, 204, 204);"/>
  <path d="M935.53346,563h-294a4.5,4.5,0,0,1,0-9h294a4.5,4.5,0,1,1,0,9Z" transform="matrix(1, 0, 0, 1, -352.375299, -227.315917)" style="fill: rgb(204, 204, 204);"/>
  <path d="M698.4626,579.811h-215a5.00573,5.00573,0,0,1-5-5v-133a5.00573,5.00573,0,0,1,5-5h215a5.00573,5.00573,0,0,1,5,5v133A5.00573,5.00573,0,0,1,698.4626,579.811Z" transform="matrix(1, 0, 0, 1, -352.375299, -227.315917)" style="fill: rgb(255, 255, 255);"/>
  <path d="M698.4626,579.811h-215a5.00573,5.00573,0,0,1-5-5v-133a5.00573,5.00573,0,0,1,5-5h215a5.00573,5.00573,0,0,1,5,5v133A5.00573,5.00573,0,0,1,698.4626,579.811Zm-215-141a3.00328,3.00328,0,0,0-3,3v133a3.00328,3.00328,0,0,0,3,3h215a3.00328,3.00328,0,0,0,3-3v-133a3.00328,3.00328,0,0,0-3-3Z" transform="matrix(1, 0, 0, 1, -352.375299, -227.315917)" style="fill: rgb(63, 61, 86);"/>
  <path d="M655.9626,497.311h-130a4.5,4.5,0,0,1,0-9h130a4.5,4.5,0,0,1,0,9Z" transform="matrix(1, 0, 0, 1, -352.375299, -227.315917)" style="fill: rgb(204, 204, 204);"/>
  <path d="M655.9626,528.311h-130a4.5,4.5,0,0,1,0-9h130a4.5,4.5,0,0,1,0,9Z" transform="matrix(1, 0, 0, 1, -352.375299, -227.315917)" style="fill: rgb(204, 204, 204);"/>
  <polygon points="230.335 504.891 242.595 504.891 248.427 457.603 230.333 457.604 230.335 504.891" transform="matrix(1, 0, 0, 1, -135.408762, -35.815917)" style="fill: rgb(160, 97, 106);"/>
  <path d="M444.17433,692.38852l24.144-.001h.001a15.3873,15.3873,0,0,1,15.38647,15.38623v.5l-39.53076.00146Z" transform="matrix(1, 0, 0, 1, -352.375299, -227.315917)" style="fill: rgb(47, 46, 65);"/>
  <polygon points="134.876 499.584 146.998 501.416 159.834 455.532 143.943 452.828 134.876 499.584" transform="matrix(1, 0, 0, 1, -135.408762, -35.815917)" style="fill: rgb(160, 97, 106);"/>
  <path d="M349.3485,686.659l23.8729,3.60829.001.00015a15.3873,15.3873,0,0,1,12.91352,17.51344l-.07474.49438-39.08679-5.90794Z" transform="matrix(1, 0, 0, 1, -352.375299, -227.315917)" style="fill: rgb(47, 46, 65);"/>
  <path d="M389.64274,462.04316l13.61234,3.56656-.90556,22.06943-.11221,40.18164a8.05269,8.05269,0,1,1-10.65739,1.33914l-4.183-40.32883Z" transform="matrix(1, 0, 0, 1, -352.375299, -227.315917)" style="fill: rgb(160, 97, 106);"/>
  <path d="M387.27321,436.76465a11.112,11.112,0,0,1,6.86914-9.88184,10.38874,10.38874,0,0,1,11.24536,1.8086,9.90512,9.90512,0,0,1,3.30176,7.66015c.03589,12.92871-2.88281,31.77344-2.91235,31.96192l-.04663.2998-19.89673,6.7002Z" transform="matrix(1, 0, 0, 1, -352.375299, -227.315917)" style="fill: rgb(146, 90, 253);"/>
  <path d="M422.84952,473.46457l30.43253-7.87755,14.06747,47.37755.5,176.5-23.27183-.14567-9.72817-142.85433-62,132-25-3,54.5-141.5s-3-25,6.5-37.5l-2-13Z" transform="matrix(1, 0, 0, 1, -352.375299, -227.315917)" style="fill: rgb(47, 46, 65);"/>
  <path d="M 49.954 257.936 C 49.093 256.89 48.73 255.521 48.959 254.185 L 35.078 212.541 C 33.754 208.563 34.899 204.179 38 201.358 L 44.026 195.88 L 48.11 179.545 L 71.581 185.283 L 69.647 193.018 L 80.27 191.087 L 102.644 240.919 L 55.876 259.613 L 53.573 259.649 C 52.171 259.651 50.841 259.022 49.954 257.936 Z" style="fill: rgb(146, 90, 253);"/>
  <path d="M434.90714,450.09054l13.41089-4.262,11.03149,19.136L480.73307,498.984a8.0527,8.0527,0,1,1-8.29126,6.82849l-25.09229-31.8479Z" transform="matrix(1, 0, 0, 1, -352.375299, -227.315917)" style="fill: rgb(160, 97, 106);"/>
  <path d="M419.39235,429.99219a11.11077,11.11077,0,0,1,.52344-12.02246,10.39434,10.39434,0,0,1,10.4707-4.48243,9.90544,9.90544,0,0,1,6.885,4.709c6.94092,10.90723,14.54736,28.39453,14.62329,28.56934l.12061.27832L438.78127,463.3418Z" transform="matrix(1, 0, 0, 1, -352.375299, -227.315917)" style="fill: rgb(146, 90, 253);"/>
  <circle cx="200.88438" cy="193.67287" r="18.64889" transform="matrix(1, 0, 0, 1, -135.408762, -35.815917)" style="fill: rgb(160, 97, 106);"/>
  <circle cx="167.92773" cy="167.84291" r="17.96364" transform="matrix(1, 0, 0, 1, -135.408762, -35.815917)" style="fill: rgb(47, 46, 65);"/>
  <path d="M369.39969,374.21795a17.96458,17.96458,0,0,0,27.74061-9.43241,17.96463,17.96463,0,1,1-35.04222-7.36674A17.958,17.958,0,0,0,369.39969,374.21795Z" transform="matrix(1, 0, 0, 1, -352.375299, -227.315917)" style="fill: rgb(47, 46, 65);"/>
  <path d="M440.29212,374.23792c-3.136-5.61432-4.33594-7.95958-8.37942-11.37357-3.57566-3.01934-7.97385-3.906-11.52134-1.04515A21.24492,21.24492,0,1,0,433.21,381.32007a21.42139,21.42139,0,0,0-.14474-2.4022C436.14885,378.48481,437.2085,374.671,440.29212,374.23792Z" transform="matrix(1, 0, 0, 1, -352.375299, -227.315917)" style="fill: rgb(47, 46, 65);"/>
  <path d="M598.96654,708.5h-381a1,1,0,0,1,0-2h381a1,1,0,0,1,0,2Z" transform="matrix(1, 0, 0, 1, -352.375299, -227.315917)" style="fill: rgb(204, 204, 204);"/>
</svg>